<svg width="960" height="520" viewBox="0 0 960 520" fill="none" xmlns="http://www.w3.org/2000/svg">
  <defs>
    <linearGradient id="bg" x1="0" y1="0" x2="1" y2="1">
      <stop stop-color="#0F1B30" offset="0"/>
      <stop stop-color="#112643" offset="1"/>
    </linearGradient>
    <linearGradient id="card" x1="0" y1="0" x2="1" y2="1">
      <stop stop-color="#1E2E4A" offset="0"/>
      <stop stop-color="#16253E" offset="1"/>
    </linearGradient>
    <style>
      .box { fill: url(#card); stroke: #5FB7FF; stroke-width: 2; rx: 10; ry: 10; }
      .text { fill: #EAF3FF; font-family: 'Inter', Arial, sans-serif; font-size: 14px; font-weight: 600; }
      .sub { fill: #B8D6FF; font-family: 'Inter', Arial, sans-serif; font-size: 12px; font-weight: 400; }
      .arrow { stroke: #7BD8FF; stroke-width: 2.5; marker-end: url(#arrowhead); }
    </style>
    <marker id="arrowhead" markerWidth="8" markerHeight="8" refX="5" refY="4" orient="auto" fill="#7BD8FF">
      <path d="M0,0 L8,4 L0,8 z" />
    </marker>
  </defs>
  <rect width="960" height="520" fill="url(#bg)" rx="24"/>
  <rect x="40" y="24" width="880" height="472" rx="24" ry="24" fill="rgba(255,255,255,0.04)" stroke="#1F3354"/>

  <rect class="box" x="96" y="70" width="200" height="76"/>
  <text class="text" x="120" y="110">Client Apps</text>
  <text class="sub" x="120" y="130">Web / Mobile</text>

  <rect class="box" x="380" y="70" width="200" height="76"/>
  <text class="text" x="400" y="110">API Gateway</text>
  <text class="sub" x="400" y="130">Auth / Rate limit / WAF</text>

  <rect class="box" x="664" y="70" width="200" height="76"/>
  <text class="text" x="684" y="110">Auth &amp; Policy</text>
  <text class="sub" x="684" y="130">OIDC / MFA / RBAC</text>

  <line class="arrow" x1="296" y1="108" x2="380" y2="108"/>
  <line class="arrow" x1="580" y1="108" x2="664" y2="108"/>

  <rect class="box" x="96" y="210" width="200" height="86"/>
  <text class="text" x="120" y="250">Appointments</text>
  <text class="sub" x="120" y="270">Scheduling</text>

  <rect class="box" x="380" y="210" width="200" height="86"/>
  <text class="text" x="404" y="250">Conversations</text>
  <text class="sub" x="404" y="270">Chat / Attachments</text>

  <rect class="box" x="664" y="210" width="200" height="86"/>
  <text class="text" x="696" y="250">Prescriptions</text>
  <text class="sub" x="696" y="270">Builder + Sig</text>

  <line class="arrow" x1="196" y1="146" x2="196" y2="210"/>
  <line class="arrow" x1="480" y1="146" x2="480" y2="210"/>
  <line class="arrow" x1="764" y1="146" x2="764" y2="210"/>

  <rect class="box" x="96" y="354" width="200" height="86"/>
  <text class="text" x="120" y="394">PostgreSQL</text>
  <text class="sub" x="120" y="414">Core data</text>

  <rect class="box" x="380" y="354" width="200" height="86"/>
  <text class="text" x="404" y="394">Object Storage</text>
  <text class="sub" x="404" y="414">Media &amp; files</text>

  <rect class="box" x="664" y="354" width="200" height="86"/>
  <text class="text" x="692" y="394">Kafka / PubSub</text>
  <text class="sub" x="692" y="414">Events &amp; fanout</text>

  <line class="arrow" x1="196" y1="296" x2="196" y2="354"/>
  <line class="arrow" x1="480" y1="296" x2="480" y2="354"/>
  <line class="arrow" x1="764" y1="296" x2="764" y2="354"/>

  <rect x="350" y="320" width="260" height="30" rx="10" ry="10" fill="rgba(123,216,255,0.08)" stroke="#4DA7FF" stroke-dasharray="6 6"/>
  <text class="sub" x="362" y="340">Event-driven backbone for async workflows</text>
</svg>
