<svg width="960" height="520" viewBox="0 0 960 520" fill="none" xmlns="http://www.w3.org/2000/svg">
  <defs>
    <linearGradient id="bg2" x1="0" y1="0" x2="1" y2="1">
      <stop stop-color="#0D1627" offset="0"/>
      <stop stop-color="#0F2038" offset="1"/>
    </linearGradient>
    <style>
      .panel { fill: rgba(255,255,255,0.05); stroke: #4DA7FF; stroke-width: 2; rx: 12; ry: 12; }
      .title { fill: #EAF3FF; font-family: 'Inter', Arial, sans-serif; font-size: 14px; font-weight: 700; }
      .label { fill: #B8D6FF; font-family: 'Inter', Arial, sans-serif; font-size: 12px; }
      .arrow { stroke: #7BD8FF; stroke-width: 2.5; marker-end: url(#arrowhead2); }
    </style>
    <marker id="arrowhead2" markerWidth="8" markerHeight="8" refX="5" refY="4" orient="auto" fill="#7BD8FF">
      <path d="M0,0 L8,4 L0,8 z" />
    </marker>
  </defs>
  <rect width="960" height="520" rx="20" fill="url(#bg2)"/>
  <rect x="36" y="24" width="888" height="472" rx="24" fill="rgba(255,255,255,0.03)" stroke="#1F3354"/>

  <rect class="panel" x="70" y="60" width="160" height="80"/>
  <text class="title" x="86" y="98">Users</text>
  <text class="label" x="86" y="118">Web / Mobile</text>

  <rect class="panel" x="260" y="60" width="180" height="80"/>
  <text class="title" x="280" y="98">CDN + WAF</text>
  <text class="label" x="280" y="118">Edge protection</text>

  <rect class="panel" x="480" y="60" width="180" height="80"/>
  <text class="title" x="500" y="98">Global LB</text>
  <text class="label" x="500" y="118">TLS 1.3</text>

  <rect class="panel" x="700" y="60" width="190" height="80"/>
  <text class="title" x="716" y="98">Edge Media SFU</text>
  <text class="label" x="716" y="118">WebRTC routing</text>

  <line class="arrow" x1="230" y1="100" x2="260" y2="100"/>
  <line class="arrow" x1="440" y1="100" x2="480" y2="100"/>
  <line class="arrow" x1="660" y1="100" x2="700" y2="100"/>

  <rect class="panel" x="120" y="200" width="280" height="96"/>
  <text class="title" x="140" y="232">Region A - Kubernetes</text>
  <text class="label" x="140" y="252">API + Services</text>
  <text class="label" x="140" y="272">Service mesh / Sidecars</text>

  <rect class="panel" x="460" y="200" width="280" height="96"/>
  <text class="title" x="480" y="232">Region B - Kubernetes</text>
  <text class="label" x="480" y="252">API + Services</text>
  <text class="label" x="480" y="272">Autoscaling</text>

  <line class="arrow" x1="570" y1="140" x2="260" y2="200"/>
  <line class="arrow" x1="570" y1="140" x2="460" y2="200"/>

  <rect class="panel" x="120" y="340" width="220" height="90"/>
  <text class="title" x="140" y="370">Data Layer</text>
  <text class="label" x="140" y="390">PostgreSQL + Redis</text>
  <text class="label" x="140" y="410">Backups, replicas</text>

  <rect class="panel" x="380" y="340" width="220" height="90"/>
  <text class="title" x="400" y="370">Event Backbone</text>
  <text class="label" x="400" y="390">Kafka / PubSub</text>
  <text class="label" x="400" y="410">Backpressure</text>

  <rect class="panel" x="640" y="340" width="220" height="90"/>
  <text class="title" x="660" y="370">Object Storage</text>
  <text class="label" x="660" y="390">Recordings / Attachments</text>
  <text class="label" x="660" y="410">KMS encrypted</text>

  <line class="arrow" x1="260" y1="296" x2="230" y2="340"/>
  <line class="arrow" x1="260" y1="296" x2="490" y2="340"/>
  <line class="arrow" x1="260" y1="296" x2="750" y2="340"/>

  <text class="label" x="340" y="460">Multi-region active-active with autoscaling and health checks.</text>
</svg>
