<svg width="960" height="520" viewBox="0 0 960 520" fill="none" xmlns="http://www.w3.org/2000/svg">
  <defs>
    <linearGradient id="bg3" x1="0" y1="0" x2="1" y2="1">
      <stop stop-color="#0C1526" offset="0"/>
      <stop stop-color="#0F2038" offset="1"/>
    </linearGradient>
    <style>
      .box { fill: rgba(255,255,255,0.05); stroke: #5FB7FF; stroke-width: 2; rx: 10; ry: 10; }
      .title { fill: #EAF3FF; font-family: 'Inter', Arial, sans-serif; font-size: 14px; font-weight: 700; }
      .sub { fill: #B8D6FF; font-family: 'Inter', Arial, sans-serif; font-size: 12px; }
      .arrow { stroke: #7BD8FF; stroke-width: 2.5; marker-end: url(#arrowhead3); }
    </style>
    <marker id="arrowhead3" markerWidth="8" markerHeight="8" refX="5" refY="4" orient="auto" fill="#7BD8FF">
      <path d="M0,0 L8,4 L0,8 z" />
    </marker>
  </defs>
  <rect width="960" height="520" rx="20" fill="url(#bg3)"/>
  <rect x="36" y="24" width="888" height="472" rx="24" fill="rgba(255,255,255,0.03)" stroke="#1F3354"/>

  <rect class="box" x="90" y="80" width="200" height="86"/>
  <text class="title" x="110" y="114">Users</text>
  <text class="sub" x="110" y="136">user_id (PK)</text>

  <rect class="box" x="380" y="80" width="200" height="86"/>
  <text class="title" x="400" y="114">Appointments</text>
  <text class="sub" x="400" y="136">appointment_id (PK)</text>

  <rect class="box" x="670" y="80" width="200" height="86"/>
  <text class="title" x="690" y="114">Conversations</text>
  <text class="sub" x="690" y="136">conversation_id (PK)</text>

  <rect class="box" x="90" y="230" width="200" height="86"/>
  <text class="title" x="110" y="264">Messages</text>
  <text class="sub" x="110" y="286">message_id (PK)</text>

  <rect class="box" x="380" y="230" width="200" height="86"/>
  <text class="title" x="400" y="264">Prescriptions</text>
  <text class="sub" x="400" y="286">prescription_id (PK)</text>

  <rect class="box" x="670" y="230" width="200" height="86"/>
  <text class="title" x="690" y="264">AuditEvents</text>
  <text class="sub" x="690" y="286">audit_id (PK)</text>

  <rect class="box" x="380" y="380" width="200" height="86"/>
  <text class="title" x="400" y="414">Attachments</text>
  <text class="sub" x="400" y="436">attachment_id (PK)</text>

  <line class="arrow" x1="290" y1="120" x2="380" y2="120"/>
  <line class="arrow" x1="580" y1="120" x2="670" y2="120"/>
  <line class="arrow" x1="190" y1="166" x2="190" y2="230"/>
  <line class="arrow" x1="480" y1="166" x2="480" y2="230"/>
  <line class="arrow" x1="770" y1="166" x2="770" y2="230"/>
  <line class="arrow" x1="190" y1="316" x2="480" y2="316"/>
  <line class="arrow" x1="480" y1="316" x2="770" y2="316"/>
  <line class="arrow" x1="480" y1="316" x2="480" y2="380"/>

  <text class="sub" x="220" y="210">patient_id (FK)</text>
  <text class="sub" x="510" y="210">appointment_id (FK)</text>
  <text class="sub" x="800" y="210">conversation_id (FK)</text>
  <text class="sub" x="510" y="356">message_id (FK)</text>
</svg>
